# xmcd
#
# Track frame offsets: 
#        150
#        16782
#        32070
#        53680
#        69545
#        84690
#        97632
#        111882
#
# Disc length: 1751 seconds
#
# Revision: 3
# Processed by: cddbd v1.5.2PL0 Copyright (c) Steve Scherf et al.
# Submitted via: ExactAudioCopyFreeDBPlugin 1.0
#
DISCID=5606d508
DTITLE=Varios - Nice Price - 2
DYEAR=1999
DGENRE=Pop
TTITLE0=Joaquín Sabina - Eh, Sabina
TTITLE1=Manolo Tena - Sangre española
TTITLE2=Ana Belén y Víctor Manuel - La puerta de Alcalá
TTITLE3=Pecos - Háblame de tí
TTITLE4=Cecilia - Nada de nada
TTITLE5=Los Panchos - Si tú me dices ven (lodo)
TTITLE6=Manzanita - Por tu ausencia
TTITLE7=Milladoiro - O ramo verde
EXTD=
EXTT0=
EXTT1=
EXTT2=
EXTT3=
EXTT4=
EXTT5=
EXTT6=
EXTT7=
PLAYORDER=
